PathFileType	4	(X/Y/Z)	S240501-1155_P07_T01_0-394.trc
DataRate	CameraRate	NumFrames	NumMarkers	Units	OrigDataRate	OrigDataStartFrame	OrigNumFrames
60	60	11	13	m	60	344	394
Frame#	Time	Nose			LEye			LEar			LShoulder			LElbow			LWrist			LHip			REye			REar			RShoulder			RElbow			RWrist			RHip		
		X1	Y1	Z1	X2	Y2	Z2	X3	Y3	Z3	X4	Y4	Z4	X5	Y5	Z5	X6	Y6	Z6	X7	Y7	Z7	X8	Y8	Z8	X9	Y9	Z9	X10	Y10	Z10	X11	Y11	Z11	X12	Y12	Z12	X13	Y13	Z13
345	5.75	-0.061639729596813395	1.6996962109752736	0.17082972427070447	-0.0878012884739178	1.6653932939168512	0.1909498193459606	-0.06584366221034477	1.6029821454643198	0.2825676998730964	0.11011275987046018	1.5198273583841022	0.25847335484019307	0.26024218445104774	1.5411297535915405	0.06263918538673735	0.30748342334630496	1.6180431736420025	-0.15181978010260844	0.523389153520669	1.608979817118831	0.24831332528404754	-0.08817973065586722	1.7315561421082384	0.19346415829826988	-0.06457732438094854	1.762594836729509	0.2966420263022444	0.10752022414399355	1.8442922560295376	0.3217063516136125	0.3336291325487936	1.9287198765167282	0.2697313164863129	0.32098819129629685	1.9009522553589526	0.039757814600700346	0.5245777182546003	1.8208452616564723	0.2421080379792251
346	5.766666666666667	-0.06190796302319764	1.700513282686206	0.16957480574724593	-0.09007188720891275	1.6658906495077586	0.18986289939127834	-0.06770516282992609	1.6012935943865718	0.2745459227613106	0.1103817853823771	1.5196495366568203	0.25783547433587767	0.2625115363901022	1.543406994561362	0.06633970331478437	0.31131480854614985	1.6188568048488747	-0.15184427417843555	0.5300872001499075	1.6085347829063141	0.2653853650106008	-0.08716120047236406	1.7325930018808806	0.19196054971657323	-0.06473321103466442	1.7636530789816083	0.29541916645075894	0.10796094837922378	1.8433411818076664	0.31998996921291106	0.33033152344356154	1.9296525194235992	0.26932025763353007	0.32014368888902955	1.9027282130002376	0.038708138960880656	0.5342426635400396	1.8159886649711015	0.2441732535998729
347	5.783333333333333	-0.061785071845523995	1.702912073764051	0.167203229988602	-0.09084953036006291	1.6659884000836942	0.18948613784733156	-0.06722830454465467	1.6030876292365632	0.2809206462423426	0.10872916574226138	1.5190224545044375	0.25807880048174076	0.2622541934439005	1.5435074067266374	0.06599258415134607	0.3101029303899682	1.6176013505112914	-0.1495559642721909	0.5397511828680759	1.60261268910043	0.25549120439391326	-0.0859821325102449	1.7327132398763174	0.19196364434623026	-0.06381156501817029	1.7634919225227421	0.2956310447313766	0.10732139489612263	1.8450913027909164	0.32347565850867516	0.33005926921226586	1.9298954092125575	0.2693401827822746	0.3212084356968819	1.9026919539319482	0.03608417980454776	0.5265121093621897	1.8195105907146993	0.24059990633579867
348	5.8	-0.061299140098874466	1.702154541143441	0.16664779176473846	-0.08914999833885744	1.6652823443567695	0.18841645766278867	-0.06887340253933065	1.6029023245114158	0.2710218211958308	0.10982967878246083	1.518839940352062	0.2564473979780559	0.25866493676826136	1.5455704787186868	0.06202554340649186	0.313543151352455	1.619927717055647	-0.15341804578625473	0.5450816891333794	1.602589527327568	0.26512356234066814	-0.08747779577331177	1.7318470452187384	0.1916218417704191	-0.0625174258300935	1.7643659349750074	0.29440689737278314	0.10777291620080112	1.842799494949871	0.3208068480192343	0.3307553249515445	1.927952124291199	0.2704510694681186	0.3220801550977891	1.9016559625566725	0.03544108510703793	0.536525571282086	1.8123622970460007	0.24251125347527702
349	5.816666666666666	-0.060403943201010224	1.7022248126736579	0.16681286885433988	-0.08846763404755714	1.6680879321175366	0.19083041985974067	-0.06755879784833062	1.6045148686631092	0.2797466015012391	0.10884183760118622	1.5204527960516896	0.25590745986299585	0.2598308463030562	1.5459799852726077	0.06026121343624223	0.3110918973565435	1.6201123014100052	-0.1573658483920461	0.5438426875711815	1.6040456686858042	0.25293720863380437	-0.0873353954734002	1.7321924135437545	0.1929228121454059	-0.062205687845858657	1.7621841337870625	0.2935385694759646	0.10741106446351141	1.8452387665224017	0.32187067441789297	0.33086908362777834	1.9329041512006064	0.2678288839079238	0.32180911198675455	1.9044244086151847	0.03461992437503649	0.5702939012223454	1.8102291564406288	0.21940852050502302
350	5.833333333333333	-0.05978147152223576	1.7036889623642422	0.16626171589810745	-0.0889320391665845	1.6668311807340268	0.1884250395500784	-0.06712140668638697	1.6070096457802598	0.2728712229955226	0.10812822998540382	1.5201742626391064	0.25656007495198696	0.2600494937376187	1.5427413437298212	0.06019591991948314	0.3132436038466406	1.6194153473839252	-0.15857623327888282	0.5754181493093959	1.59660006714271	0.1485909225610062	-0.08627448665140194	1.731472512960187	0.19395780633992718	-0.06200563071503459	1.7625233186461091	0.293877578447051	0.1078077813022331	1.8461274761727882	0.32487094096818586	0.33137843835806935	1.9314145675407983	0.2702264743713733	0.3222913236446587	1.902926469091138	0.03519942305797463	0.5608248740718234	1.8115594335274599	0.2165605715054943
351	5.85	-0.05978865494873953	1.7034126918931403	0.1669645495944904	-0.08807276289413495	1.6688644474773584	0.18725233774179878	-0.06705112640239697	1.6038165685664152	0.2719249928016645	0.10742476807874556	1.5230796879430595	0.2522340884732305	0.26000264290490654	1.5444120684230493	0.06083884304354196	0.31456171938167093	1.6177801621864178	-0.15944830401374183	0.5458648923594136	1.6048364307940968	0.26270528764501416	-0.08803592282618351	1.7332273130528741	0.19258231037552323	-0.06175763148686458	1.7631230416468686	0.2935841913396323	0.10767083086774057	1.8463913292599567	0.3217640628109656	0.3315677580778855	1.9311403753103022	0.270694326035828	0.32254686780095315	1.9028758053487431	0.03650479082381783	0.5141726660944638	1.8220446731918072	0.24553662958700334
352	5.866666666666666	-0.0609467018605429	1.7020512588509773	0.16463078876520065	-0.08879660851107073	1.668291225680463	0.1874963559389285	-0.06951725493961272	1.6019376469561726	0.2648633207617088	0.10754262350680334	1.5228623391093392	0.2555724762639846	0.26275378712310604	1.541521412498021	0.06100380588655264	0.31543590257521653	1.6186072747515172	-0.1608972793624171	0.5455761674428089	1.6031908163514137	0.25369782637317834	-0.08550975708764597	1.7324193706569386	0.19375538147592059	-0.06279969709579172	1.7651412136075078	0.2917381107931978	0.10746092655109489	1.8465464989905223	0.3247233462760388	0.332324731860222	1.9316165524388254	0.26988549396076617	0.32128863376607575	1.902193166289747	0.03619612941820759	0.51813486272299	1.821981789271951	0.24241935093102862
353	5.883333333333334	-0.06042817822195406	1.700667981599131	0.1649431780643697	-0.0887584238230767	1.6690689643316297	0.18630400284166224	-0.0678959987179492	1.6041472555937426	0.27075744471289015	0.10805387404171113	1.5231963833248847	0.25521524149887476	0.26009723910838095	1.543210095926575	0.05984288219502265	0.313821121024904	1.6200066300022617	-0.1621465334523419	0.5430590336202298	1.603113078276686	0.2538399950597005	-0.08543818950570618	1.7333319482042464	0.19235113769141488	-0.06269168817289904	1.7637928677699979	0.2926162132027868	0.10667934673156453	1.8460409612210409	0.32177092835760457	0.33178927705872424	1.9332863391282589	0.26776981682984446	0.32120780776786706	1.9018468696771254	0.0361969529265606	0.520176074726411	1.8233678888288123	0.24524500990106807
354	5.9	-0.060367177837009706	1.702365330888623	0.1634592354728212	-0.08735107330004759	1.668992229082285	0.1906711265077951	-0.06712694867000069	1.6041290818886733	0.27190878339069585	0.10790602743214577	1.5241041964454571	0.2508274722825185	0.2612555872854408	1.5428285815114975	0.059126781507534316	0.3138521504150574	1.6205887619091621	-0.161344515497139	0.5246151462512294	1.604214676163445	0.23259477264256265	-0.08498138038774972	1.7328128084213106	0.19247870709869547	-0.06282612665882797	1.7658454842409461	0.2903382360932912	0.10733177268717975	1.842920494245629	0.32337879155962	0.3325316803117906	1.930988081631175	0.26911129429257097	0.3232821239117729	1.8985493079279754	0.03537736277634136	0.5158107360632296	1.8207393968318428	0.244441579213526
355	5.916666666666667	-0.060152230743506535	1.7015594501831595	0.16465356060030364	-0.08815491679201401	1.6696008189430418	0.18645274775624232	-0.06877981512295206	1.6047378631733098	0.27123648190608407	0.1071885484008945	1.5215632622695727	0.24953415732252238	0.25951522689947365	1.5455753299722341	0.05942788773402588	0.3145730877226638	1.6203190565613623	-0.16332174472953953	0.5424779392145221	1.6053423656295482	0.2599193175275422	-0.08476912091703225	1.7335881467349865	0.1879111132722709	-0.062114079950566815	1.7653104677927371	0.2917920916736261	0.11149862482436136	1.8448121800037631	0.32547824454335017	0.33153686614104094	1.929707441109494	0.26656403466911066	0.3215856008569978	1.9035695642663422	0.039307721035204676	0.5229257395867711	1.8207038869356347	0.2451759223978554
